<svg version="1.1" xmlns="http://www.w3.org/2000/svg" xmlns:xlink="http://www.w3.org/1999/xlink" x="0px" y="0px" viewBox="0 0 210.4 220.1" style="enable-background:new 0 0 210.4 220.1;" xml:space="preserve" width="210.4"  height="220.1" >
		<polygon points="164.9,189 210.4,189 210.4,90.3 111.6,90.3 111.6,135.7 164.9,135.7 " style="opacity: 0.25;" fill="#2F3132"></polygon><polygon points="164.9,189 210.4,189 210.4,90.3 111.6,90.3 111.6,135.7 164.9,135.7 " mask="url('#maskSlkqtxvwu36_5966-8595-2691')" fill="#2F3132"></polygon>
		<path d="M110.8,220.1C49.7,220.1,0,170.8,0,110.1C0,49.3,49.7,0,110.8,0v45.7c-36,0-64.6,28.9-64.6,64.4c0,35.5,28.5,64.4,64.6,64.4V220.1z" style="opacity: 0.25;" fill="#2F3132"></path><path d="M110.8,220.1C49.7,220.1,0,170.8,0,110.1C0,49.3,49.7,0,110.8,0v45.7c-36,0-64.6,28.9-64.6,64.4c0,35.5,28.5,64.4,64.6,64.4V220.1z" mask="url('#maskSlkqtxvwu37_5020-6465-2843')" fill="#2F3132"></path>
	<desc>Created with Snap</desc><defs><mask id="maskSlkqtxvwu36_5966-8595-2691"><rect x="111.6" y="90.3"  height="45.4" fill="#ffffff" style=""></rect></mask><mask id="maskSlkqtxvwu37_5020-6465-2843"><rect x="110.8" y="0" width="110.8" height="220.1" fill="#ffffff" style="" transform="matrix(1,0,0,1,0,0)"></rect></mask></defs></svg>