<svg xmlns="http://www.w3.org/2000/svg" xmlns:xlink="http://www.w3.org/1999/xlink" version="1.1" x="0px" y="0px" viewBox="0 0 858.9 157.7" style="enable-background:new 0 0 858.9 157.7;" xml:space="preserve" width="858.9"  height="157.7" >
<style type="text/css">
	.twitch-status-fill{fill:#c3c6c8;}
</style>
<path class="twitch-status-fill" d="M10,0h141.9v95.9c-14.1,14.1-28.3,28.3-42.7,42.7c-8.8,0-17.8,0-26.8,0c-1.4,0-2.5,0.4-3.5,1.4  c-5.3,5.3-10.5,10.5-15.8,15.8c-0.3,0.3-0.5,0.8-0.8,1.3c-0.9,0.7-2.1,0.7-3.3,0.7c-6.9,0-13.7,0-20.5,0c-0.3-0.3-0.6-0.6-0.9-0.9  v-18c-0.1-0.1-0.1-0.2-0.2-0.2c-0.1,0-0.2-0.1-0.2-0.1c-12.4,0-24.7,0-37.3,0v-2.9c0-34.7,0-69.4,0-104.1c0-2.8,0.6-5.3,1.5-7.8  C3.3,18.2,5.2,12.5,7,6.9c0.6-1.7,1.1-3.4,1.8-5.1C9,1.2,9.6,0.6,10,0 M23.9,14.5v99.7h33v19.4c6.7-6.7,13.1-13.1,19.5-19.5h37.7  c7.8-7.8,15.6-15.6,23.4-23.4V14.5H23.9z"/>
<path class="twitch-status-fill" d="M99.9,42.9h14.3v42.7c0,0,0,0-0.1,0.1c-0.1,0.1-0.2,0.1-0.2,0.1c-4.6,0-9.2,0-14,0V42.9z"/>
<path class="twitch-status-fill" d="M62.4,42.9h13.6v42.7c0,0,0,0.1-0.1,0.1c-0.1,0.1-0.2,0.1-0.2,0.1c-4.6,0-9.2,0-14.1,0v-2.9  c0-12.5,0-24.9,0-37.4C61.5,44.6,61.2,43.6,62.4,42.9"/>
<polygon class="twitch-status-fill" points="179,0 179,91 179,91 131,136.454545455 179,136.454545455 179,136.454545455 859,136.454545455 859,0"/>
</svg>